<svg width="211" height="18" viewBox="0 0 211 18" fill="none" xmlns="http://www.w3.org/2000/svg">
<path d="M5.816 7.256C6.22133 7.32 6.58933 7.48533 6.92 7.752C7.26133 8.01867 7.528 8.34933 7.72 8.744C7.92267 9.13867 8.024 9.56 8.024 10.008C8.024 10.5733 7.88 11.0853 7.592 11.544C7.304 11.992 6.88267 12.3493 6.328 12.616C5.784 12.872 5.13867 13 4.392 13H0.232V1.848H4.232C4.98933 1.848 5.63467 1.976 6.168 2.232C6.70133 2.47733 7.10133 2.81333 7.368 3.24C7.63467 3.66667 7.768 4.14667 7.768 4.68C7.768 5.34133 7.58667 5.89067 7.224 6.328C6.872 6.75467 6.40267 7.064 5.816 7.256ZM1.688 6.664H4.136C4.81867 6.664 5.34667 6.504 5.72 6.184C6.09333 5.864 6.28 5.42133 6.28 4.856C6.28 4.29067 6.09333 3.848 5.72 3.528C5.34667 3.208 4.808 3.048 4.104 3.048H1.688V6.664ZM4.264 11.8C4.98933 11.8 5.55467 11.6293 5.96 11.288C6.36533 10.9467 6.568 10.472 6.568 9.864C6.568 9.24533 6.35467 8.76 5.928 8.408C5.50133 8.04533 4.93067 7.864 4.216 7.864H1.688V11.8H4.264ZM17.8205 4.232V13H16.3645V11.704C16.0872 12.152 15.6978 12.504 15.1965 12.76C14.7058 13.0053 14.1618 13.128 13.5645 13.128C12.8818 13.128 12.2685 12.9893 11.7245 12.712C11.1805 12.424 10.7485 11.9973 10.4285 11.432C10.1192 10.8667 9.9645 10.1787 9.9645 9.368V4.232H11.4045V9.176C11.4045 10.04 11.6232 10.7067 12.0605 11.176C12.4978 11.6347 13.0952 11.864 13.8525 11.864C14.6312 11.864 15.2445 11.624 15.6925 11.144C16.1405 10.664 16.3645 9.96533 16.3645 9.048V4.232H17.8205ZM19.7349 8.584C19.7349 7.688 19.9162 6.904 20.2789 6.232C20.6415 5.54933 21.1375 5.02133 21.7669 4.648C22.4069 4.27467 23.1162 4.088 23.8949 4.088C24.6629 4.088 25.3295 4.25333 25.8949 4.584C26.4602 4.91467 26.8815 5.33067 27.1589 5.832V4.232H28.6309V13H27.1589V11.368C26.8709 11.88 26.4389 12.3067 25.8629 12.648C25.2975 12.9787 24.6362 13.144 23.8789 13.144C23.1002 13.144 22.3962 12.952 21.7669 12.568C21.1375 12.184 20.6415 11.6453 20.2789 10.952C19.9162 10.2587 19.7349 9.46933 19.7349 8.584ZM27.1589 8.6C27.1589 7.93867 27.0255 7.36267 26.7589 6.872C26.4922 6.38133 26.1295 6.008 25.6709 5.752C25.2229 5.48533 24.7269 5.352 24.1829 5.352C23.6389 5.352 23.1429 5.48 22.6949 5.736C22.2469 5.992 21.8895 6.36533 21.6229 6.856C21.3562 7.34667 21.2229 7.92267 21.2229 8.584C21.2229 9.256 21.3562 9.84267 21.6229 10.344C21.8895 10.8347 22.2469 11.2133 22.6949 11.48C23.1429 11.736 23.6389 11.864 24.1829 11.864C24.7269 11.864 25.2229 11.736 25.6709 11.48C26.1295 11.2133 26.4922 10.8347 26.7589 10.344C27.0255 9.84267 27.1589 9.26133 27.1589 8.6ZM32.8674 5.432V10.6C32.8674 11.0267 32.958 11.3307 33.1394 11.512C33.3207 11.6827 33.6354 11.768 34.0834 11.768H35.1554V13H33.8434C33.0327 13 32.4247 12.8133 32.0194 12.44C31.614 12.0667 31.4114 11.4533 31.4114 10.6V5.432H30.2754V4.232H31.4114V2.024H32.8674V4.232H35.1554V5.432H32.8674ZM42.6411 1.16V13H41.1851V1.16H42.6411ZM45.8746 2.808C45.5973 2.808 45.3626 2.712 45.1706 2.52C44.9786 2.328 44.8826 2.09333 44.8826 1.816C44.8826 1.53867 44.9786 1.304 45.1706 1.112C45.3626 0.919999 45.5973 0.823999 45.8746 0.823999C46.1413 0.823999 46.3653 0.919999 46.5466 1.112C46.7386 1.304 46.8346 1.53867 46.8346 1.816C46.8346 2.09333 46.7386 2.328 46.5466 2.52C46.3653 2.712 46.1413 2.808 45.8746 2.808ZM46.5786 4.232V13H45.1226V4.232H46.5786ZM52.1641 13.144C51.4921 13.144 50.8895 13.032 50.3561 12.808C49.8228 12.5733 49.4015 12.2533 49.0921 11.848C48.7828 11.432 48.6121 10.9573 48.5801 10.424H50.0841C50.1268 10.8613 50.3295 11.2187 50.6921 11.496C51.0655 11.7733 51.5508 11.912 52.1481 11.912C52.7028 11.912 53.1401 11.7893 53.4601 11.544C53.7801 11.2987 53.9401 10.9893 53.9401 10.616C53.9401 10.232 53.7695 9.94933 53.4281 9.768C53.0868 9.576 52.5588 9.38933 51.8441 9.208C51.1935 9.03733 50.6601 8.86667 50.2441 8.696C49.8388 8.51467 49.4868 8.25333 49.1881 7.912C48.9001 7.56 48.7561 7.10133 48.7561 6.536C48.7561 6.088 48.8895 5.67733 49.1561 5.304C49.4228 4.93067 49.8015 4.63733 50.2921 4.424C50.7828 4.2 51.3428 4.088 51.9721 4.088C52.9428 4.088 53.7268 4.33333 54.3241 4.824C54.9215 5.31467 55.2415 5.98667 55.2841 6.84H53.8281C53.7961 6.38133 53.6095 6.01333 53.2681 5.736C52.9375 5.45867 52.4895 5.32 51.9241 5.32C51.4015 5.32 50.9855 5.432 50.6761 5.656C50.3668 5.88 50.2121 6.17333 50.2121 6.536C50.2121 6.824 50.3028 7.064 50.4841 7.256C50.6761 7.43733 50.9108 7.58667 51.1881 7.704C51.4761 7.81067 51.8708 7.93333 52.3721 8.072C53.0015 8.24267 53.5135 8.41333 53.9081 8.584C54.3028 8.744 54.6388 8.98933 54.9161 9.32C55.2041 9.65067 55.3535 10.0827 55.3641 10.616C55.3641 11.096 55.2308 11.528 54.9641 11.912C54.6975 12.296 54.3188 12.6 53.8281 12.824C53.3481 13.0373 52.7935 13.144 52.1641 13.144ZM59.1955 5.432V10.6C59.1955 11.0267 59.2862 11.3307 59.4675 11.512C59.6488 11.6827 59.9635 11.768 60.4115 11.768H61.4835V13H60.1715C59.3608 13 58.7528 12.8133 58.3475 12.44C57.9422 12.0667 57.7395 11.4533 57.7395 10.6V5.432H56.6035V4.232H57.7395V2.024H59.1955V4.232H61.4835V5.432H59.1955ZM69.2893 5.432V10.6C69.2893 11.0267 69.3799 11.3307 69.5613 11.512C69.7426 11.6827 70.0573 11.768 70.5052 11.768H71.5773V13H70.2653C69.4546 13 68.8466 12.8133 68.4413 12.44C68.0359 12.0667 67.8333 11.4533 67.8333 10.6V5.432H66.6973V4.232H67.8333V2.024H69.2893V4.232H71.5773V5.432H69.2893ZM81.1174 4.232V13H79.6614V11.704C79.384 12.152 78.9947 12.504 78.4934 12.76C78.0027 13.0053 77.4587 13.128 76.8614 13.128C76.1787 13.128 75.5654 12.9893 75.0214 12.712C74.4774 12.424 74.0454 11.9973 73.7254 11.432C73.416 10.8667 73.2614 10.1787 73.2614 9.368V4.232H74.7014V9.176C74.7014 10.04 74.92 10.7067 75.3574 11.176C75.7947 11.6347 76.392 11.864 77.1494 11.864C77.928 11.864 78.5414 11.624 78.9894 11.144C79.4374 10.664 79.6614 9.96533 79.6614 9.048V4.232H81.1174ZM87.1918 4.088C87.9491 4.088 88.6104 4.25333 89.1758 4.584C89.7518 4.91467 90.1784 5.33067 90.4558 5.832V4.232H91.9278V13.192C91.9278 13.992 91.7571 14.7013 91.4158 15.32C91.0744 15.9493 90.5838 16.44 89.9438 16.792C89.3144 17.144 88.5784 17.32 87.7358 17.32C86.5838 17.32 85.6238 17.048 84.8558 16.504C84.0878 15.96 83.6344 15.2187 83.4958 14.28H84.9358C85.0958 14.8133 85.4264 15.24 85.9278 15.56C86.4291 15.8907 87.0318 16.056 87.7358 16.056C88.5358 16.056 89.1864 15.8053 89.6878 15.304C90.1998 14.8027 90.4558 14.0987 90.4558 13.192V11.352C90.1678 11.864 89.7411 12.2907 89.1758 12.632C88.6104 12.9733 87.9491 13.144 87.1918 13.144C86.4131 13.144 85.7038 12.952 85.0638 12.568C84.4344 12.184 83.9384 11.6453 83.5758 10.952C83.2131 10.2587 83.0318 9.46933 83.0318 8.584C83.0318 7.688 83.2131 6.904 83.5758 6.232C83.9384 5.54933 84.4344 5.02133 85.0638 4.648C85.7038 4.27467 86.4131 4.088 87.1918 4.088ZM90.4558 8.6C90.4558 7.93867 90.3224 7.36267 90.0558 6.872C89.7891 6.38133 89.4264 6.008 88.9678 5.752C88.5198 5.48533 88.0238 5.352 87.4798 5.352C86.9358 5.352 86.4398 5.48 85.9918 5.736C85.5438 5.992 85.1864 6.36533 84.9198 6.856C84.6531 7.34667 84.5198 7.92267 84.5198 8.584C84.5198 9.256 84.6531 9.84267 84.9198 10.344C85.1864 10.8347 85.5438 11.2133 85.9918 11.48C86.4398 11.736 86.9358 11.864 87.4798 11.864C88.0238 11.864 88.5198 11.736 88.9678 11.48C89.4264 11.2133 89.7891 10.8347 90.0558 10.344C90.3224 9.84267 90.4558 9.26133 90.4558 8.6ZM93.8443 8.584C93.8443 7.688 94.0256 6.904 94.3883 6.232C94.7509 5.54933 95.2469 5.02133 95.8763 4.648C96.5163 4.27467 97.2256 4.088 98.0043 4.088C98.7723 4.088 99.4389 4.25333 100.004 4.584C100.57 4.91467 100.991 5.33067 101.268 5.832V4.232H102.74V13H101.268V11.368C100.98 11.88 100.548 12.3067 99.9723 12.648C99.4069 12.9787 98.7456 13.144 97.9883 13.144C97.2096 13.144 96.5056 12.952 95.8763 12.568C95.2469 12.184 94.7509 11.6453 94.3883 10.952C94.0256 10.2587 93.8443 9.46933 93.8443 8.584ZM101.268 8.6C101.268 7.93867 101.135 7.36267 100.868 6.872C100.602 6.38133 100.239 6.008 99.7803 5.752C99.3323 5.48533 98.8363 5.352 98.2923 5.352C97.7483 5.352 97.2523 5.48 96.8043 5.736C96.3563 5.992 95.9989 6.36533 95.7323 6.856C95.4656 7.34667 95.3323 7.92267 95.3323 8.584C95.3323 9.256 95.4656 9.84267 95.7323 10.344C95.9989 10.8347 96.3563 11.2133 96.8043 11.48C97.2523 11.736 97.7483 11.864 98.2923 11.864C98.8363 11.864 99.3323 11.736 99.7803 11.48C100.239 11.2133 100.602 10.8347 100.868 10.344C101.135 9.84267 101.268 9.26133 101.268 8.6ZM108.305 13.144C107.633 13.144 107.03 13.032 106.497 12.808C105.963 12.5733 105.542 12.2533 105.233 11.848C104.923 11.432 104.753 10.9573 104.721 10.424H106.225C106.267 10.8613 106.47 11.2187 106.833 11.496C107.206 11.7733 107.691 11.912 108.289 11.912C108.843 11.912 109.281 11.7893 109.601 11.544C109.921 11.2987 110.081 10.9893 110.081 10.616C110.081 10.232 109.91 9.94933 109.569 9.768C109.227 9.576 108.699 9.38933 107.985 9.208C107.334 9.03733 106.801 8.86667 106.385 8.696C105.979 8.51467 105.627 8.25333 105.329 7.912C105.041 7.56 104.897 7.10133 104.897 6.536C104.897 6.088 105.03 5.67733 105.297 5.304C105.563 4.93067 105.942 4.63733 106.433 4.424C106.923 4.2 107.483 4.088 108.113 4.088C109.083 4.088 109.867 4.33333 110.465 4.824C111.062 5.31467 111.382 5.98667 111.425 6.84H109.969C109.937 6.38133 109.75 6.01333 109.409 5.736C109.078 5.45867 108.63 5.32 108.065 5.32C107.542 5.32 107.126 5.432 106.817 5.656C106.507 5.88 106.353 6.17333 106.353 6.536C106.353 6.824 106.443 7.064 106.625 7.256C106.817 7.43733 107.051 7.58667 107.329 7.704C107.617 7.81067 108.011 7.93333 108.513 8.072C109.142 8.24267 109.654 8.41333 110.049 8.584C110.443 8.744 110.779 8.98933 111.057 9.32C111.345 9.65067 111.494 10.0827 111.505 10.616C111.505 11.096 111.371 11.528 111.105 11.912C110.838 12.296 110.459 12.6 109.969 12.824C109.489 13.0373 108.934 13.144 108.305 13.144ZM122.178 4.072C122.839 4.072 123.436 4.216 123.97 4.504C124.503 4.78133 124.919 5.20267 125.218 5.768C125.527 6.33333 125.682 7.02133 125.682 7.832V13H124.242V8.04C124.242 7.16533 124.023 6.49867 123.586 6.04C123.148 5.57067 122.551 5.336 121.794 5.336C121.026 5.336 120.412 5.576 119.954 6.056C119.506 6.536 119.282 7.23467 119.282 8.152V13H117.826V1.16H119.282V5.48C119.57 5.032 119.964 4.68533 120.466 4.44C120.978 4.19467 121.548 4.072 122.178 4.072ZM127.516 8.584C127.516 7.688 127.697 6.904 128.06 6.232C128.423 5.54933 128.919 5.02133 129.548 4.648C130.188 4.27467 130.897 4.088 131.676 4.088C132.444 4.088 133.111 4.25333 133.676 4.584C134.241 4.91467 134.663 5.33067 134.94 5.832V4.232H136.412V13H134.94V11.368C134.652 11.88 134.22 12.3067 133.644 12.648C133.079 12.9787 132.417 13.144 131.66 13.144C130.881 13.144 130.177 12.952 129.548 12.568C128.919 12.184 128.423 11.6453 128.06 10.952C127.697 10.2587 127.516 9.46933 127.516 8.584ZM134.94 8.6C134.94 7.93867 134.807 7.36267 134.54 6.872C134.273 6.38133 133.911 6.008 133.452 5.752C133.004 5.48533 132.508 5.352 131.964 5.352C131.42 5.352 130.924 5.48 130.476 5.736C130.028 5.992 129.671 6.36533 129.404 6.856C129.137 7.34667 129.004 7.92267 129.004 8.584C129.004 9.256 129.137 9.84267 129.404 10.344C129.671 10.8347 130.028 11.2133 130.476 11.48C130.924 11.736 131.42 11.864 131.964 11.864C132.508 11.864 133.004 11.736 133.452 11.48C133.911 11.2133 134.273 10.8347 134.54 10.344C134.807 9.84267 134.94 9.26133 134.94 8.6ZM140.329 5.656C140.585 5.15467 140.947 4.76533 141.417 4.488C141.897 4.21067 142.478 4.072 143.161 4.072V5.576H142.777C141.145 5.576 140.329 6.46133 140.329 8.232V13H138.873V4.232H140.329V5.656ZM145.593 2.808C145.316 2.808 145.081 2.712 144.889 2.52C144.697 2.328 144.601 2.09333 144.601 1.816C144.601 1.53867 144.697 1.304 144.889 1.112C145.081 0.919999 145.316 0.823999 145.593 0.823999C145.86 0.823999 146.084 0.919999 146.265 1.112C146.457 1.304 146.553 1.53867 146.553 1.816C146.553 2.09333 146.457 2.328 146.265 2.52C146.084 2.712 145.86 2.808 145.593 2.808ZM146.297 4.232V13H144.841V4.232H146.297ZM148.235 8.584C148.235 7.688 148.416 6.904 148.779 6.232C149.142 5.54933 149.638 5.02133 150.267 4.648C150.907 4.27467 151.616 4.088 152.395 4.088C153.163 4.088 153.83 4.25333 154.395 4.584C154.96 4.91467 155.382 5.33067 155.659 5.832V4.232H157.131V13H155.659V11.368C155.371 11.88 154.939 12.3067 154.363 12.648C153.798 12.9787 153.136 13.144 152.379 13.144C151.6 13.144 150.896 12.952 150.267 12.568C149.638 12.184 149.142 11.6453 148.779 10.952C148.416 10.2587 148.235 9.46933 148.235 8.584ZM155.659 8.6C155.659 7.93867 155.526 7.36267 155.259 6.872C154.992 6.38133 154.63 6.008 154.171 5.752C153.723 5.48533 153.227 5.352 152.683 5.352C152.139 5.352 151.643 5.48 151.195 5.736C150.747 5.992 150.39 6.36533 150.123 6.856C149.856 7.34667 149.723 7.92267 149.723 8.584C149.723 9.256 149.856 9.84267 150.123 10.344C150.39 10.8347 150.747 11.2133 151.195 11.48C151.643 11.736 152.139 11.864 152.683 11.864C153.227 11.864 153.723 11.736 154.171 11.48C154.63 11.2133 154.992 10.8347 155.259 10.344C155.526 9.84267 155.659 9.26133 155.659 8.6ZM163.863 4.072C164.93 4.072 165.794 4.39733 166.455 5.048C167.117 5.688 167.447 6.616 167.447 7.832V13H166.007V8.04C166.007 7.16533 165.789 6.49867 165.351 6.04C164.914 5.57067 164.317 5.336 163.559 5.336C162.791 5.336 162.178 5.576 161.719 6.056C161.271 6.536 161.047 7.23467 161.047 8.152V13H159.591V4.232H161.047V5.48C161.335 5.032 161.725 4.68533 162.215 4.44C162.717 4.19467 163.266 4.072 163.863 4.072ZM177.195 13.144C176.523 13.144 175.921 13.032 175.387 12.808C174.854 12.5733 174.433 12.2533 174.123 11.848C173.814 11.432 173.643 10.9573 173.611 10.424H175.115C175.158 10.8613 175.361 11.2187 175.723 11.496C176.097 11.7733 176.582 11.912 177.179 11.912C177.734 11.912 178.171 11.7893 178.491 11.544C178.811 11.2987 178.971 10.9893 178.971 10.616C178.971 10.232 178.801 9.94933 178.459 9.768C178.118 9.576 177.59 9.38933 176.875 9.208C176.225 9.03733 175.691 8.86667 175.275 8.696C174.87 8.51467 174.518 8.25333 174.219 7.912C173.931 7.56 173.787 7.10133 173.787 6.536C173.787 6.088 173.921 5.67733 174.187 5.304C174.454 4.93067 174.833 4.63733 175.323 4.424C175.814 4.2 176.374 4.088 177.003 4.088C177.974 4.088 178.758 4.33333 179.355 4.824C179.953 5.31467 180.273 5.98667 180.315 6.84H178.859C178.827 6.38133 178.641 6.01333 178.299 5.736C177.969 5.45867 177.521 5.32 176.955 5.32C176.433 5.32 176.017 5.432 175.707 5.656C175.398 5.88 175.243 6.17333 175.243 6.536C175.243 6.824 175.334 7.064 175.515 7.256C175.707 7.43733 175.942 7.58667 176.219 7.704C176.507 7.81067 176.902 7.93333 177.403 8.072C178.033 8.24267 178.545 8.41333 178.939 8.584C179.334 8.744 179.67 8.98933 179.947 9.32C180.235 9.65067 180.385 10.0827 180.395 10.616C180.395 11.096 180.262 11.528 179.995 11.912C179.729 12.296 179.35 12.6 178.859 12.824C178.379 13.0373 177.825 13.144 177.195 13.144ZM181.907 8.584C181.907 7.688 182.088 6.904 182.451 6.232C182.813 5.54933 183.309 5.02133 183.939 4.648C184.579 4.27467 185.288 4.088 186.067 4.088C186.835 4.088 187.501 4.25333 188.067 4.584C188.632 4.91467 189.053 5.33067 189.331 5.832V4.232H190.803V13H189.331V11.368C189.043 11.88 188.611 12.3067 188.035 12.648C187.469 12.9787 186.808 13.144 186.051 13.144C185.272 13.144 184.568 12.952 183.939 12.568C183.309 12.184 182.813 11.6453 182.451 10.952C182.088 10.2587 181.907 9.46933 181.907 8.584ZM189.331 8.6C189.331 7.93867 189.197 7.36267 188.931 6.872C188.664 6.38133 188.301 6.008 187.843 5.752C187.395 5.48533 186.899 5.352 186.355 5.352C185.811 5.352 185.315 5.48 184.867 5.736C184.419 5.992 184.061 6.36533 183.795 6.856C183.528 7.34667 183.395 7.92267 183.395 8.584C183.395 9.256 183.528 9.84267 183.795 10.344C184.061 10.8347 184.419 11.2133 184.867 11.48C185.315 11.736 185.811 11.864 186.355 11.864C186.899 11.864 187.395 11.736 187.843 11.48C188.301 11.2133 188.664 10.8347 188.931 10.344C189.197 9.84267 189.331 9.26133 189.331 8.6ZM200.815 4.232L195.535 17.128H194.031L195.759 12.904L192.223 4.232H193.839L196.591 11.336L199.311 4.232H200.815ZM201.735 8.584C201.735 7.688 201.916 6.904 202.279 6.232C202.642 5.54933 203.138 5.02133 203.767 4.648C204.407 4.27467 205.116 4.088 205.895 4.088C206.663 4.088 207.33 4.25333 207.895 4.584C208.46 4.91467 208.882 5.33067 209.159 5.832V4.232H210.631V13H209.159V11.368C208.871 11.88 208.439 12.3067 207.863 12.648C207.298 12.9787 206.636 13.144 205.879 13.144C205.1 13.144 204.396 12.952 203.767 12.568C203.138 12.184 202.642 11.6453 202.279 10.952C201.916 10.2587 201.735 9.46933 201.735 8.584ZM209.159 8.6C209.159 7.93867 209.026 7.36267 208.759 6.872C208.492 6.38133 208.13 6.008 207.671 5.752C207.223 5.48533 206.727 5.352 206.183 5.352C205.639 5.352 205.143 5.48 204.695 5.736C204.247 5.992 203.89 6.36533 203.623 6.856C203.356 7.34667 203.223 7.92267 203.223 8.584C203.223 9.256 203.356 9.84267 203.623 10.344C203.89 10.8347 204.247 11.2133 204.695 11.48C205.143 11.736 205.639 11.864 206.183 11.864C206.727 11.864 207.223 11.736 207.671 11.48C208.13 11.2133 208.492 10.8347 208.759 10.344C209.026 9.84267 209.159 9.26133 209.159 8.6Z" fill="#7A7F83"/>
</svg>
