<svg width="183" height="48" viewBox="0 0 183 48" fill="none" xmlns="http://www.w3.org/2000/svg">
<rect width="183" height="48" rx="24" fill="#FF5F26"/>
<path d="M27.0369 20.4626V27.6111" stroke="white" stroke-width="2" stroke-linecap="round" stroke-linejoin="round"/>
<path d="M30.6147 24.0369H23.4589" stroke="white" stroke-width="2" stroke-linecap="round" stroke-linejoin="round"/>
<path fill-rule="evenodd" clip-rule="evenodd" d="M17.3 24.0369C17.3 16.7348 19.7348 14.3 27.0369 14.3C34.339 14.3 36.7737 16.7348 36.7737 24.0369C36.7737 31.339 34.339 33.7737 27.0369 33.7737C19.7348 33.7737 17.3 31.339 17.3 24.0369Z" stroke="white" stroke-width="2" stroke-linecap="round" stroke-linejoin="round"/>
<path d="M55.704 18.832V20.64H52.728V30H50.488V20.64H47.512V18.832H55.704ZM56.7624 25.536C56.7624 24.64 56.9384 23.8453 57.2904 23.152C57.653 22.4587 58.1384 21.9253 58.7464 21.552C59.365 21.1787 60.053 20.992 60.8104 20.992C61.4717 20.992 62.0477 21.1253 62.5384 21.392C63.0397 21.6587 63.4397 21.9947 63.7384 22.4V21.136H65.9944V30H63.7384V28.704C63.4504 29.12 63.0504 29.4667 62.5384 29.744C62.037 30.0107 61.4557 30.144 60.7944 30.144C60.0477 30.144 59.365 29.952 58.7464 29.568C58.1384 29.184 57.653 28.6453 57.2904 27.952C56.9384 27.248 56.7624 26.4427 56.7624 25.536ZM63.7384 25.568C63.7384 25.024 63.6317 24.56 63.4184 24.176C63.205 23.7813 62.917 23.4827 62.5544 23.28C62.1917 23.0667 61.8024 22.96 61.3864 22.96C60.9704 22.96 60.5864 23.0613 60.2344 23.264C59.8824 23.4667 59.5944 23.7653 59.3704 24.16C59.157 24.544 59.0504 25.0027 59.0504 25.536C59.0504 26.0693 59.157 26.5387 59.3704 26.944C59.5944 27.3387 59.8824 27.6427 60.2344 27.856C60.597 28.0693 60.981 28.176 61.3864 28.176C61.8024 28.176 62.1917 28.0747 62.5544 27.872C62.917 27.6587 63.205 27.36 63.4184 26.976C63.6317 26.5813 63.7384 26.112 63.7384 25.568ZM79.1901 21.008C80.2781 21.008 81.1528 21.344 81.8141 22.016C82.4861 22.6773 82.8221 23.6053 82.8221 24.8V30H80.5821V25.104C80.5821 24.4107 80.4061 23.8827 80.0541 23.52C79.7021 23.1467 79.2221 22.96 78.6141 22.96C78.0061 22.96 77.5208 23.1467 77.1581 23.52C76.8061 23.8827 76.6301 24.4107 76.6301 25.104V30H74.3901V25.104C74.3901 24.4107 74.2141 23.8827 73.8621 23.52C73.5101 23.1467 73.0301 22.96 72.4221 22.96C71.8035 22.96 71.3128 23.1467 70.9501 23.52C70.5981 23.8827 70.4221 24.4107 70.4221 25.104V30H68.1821V21.136H70.4221V22.208C70.7101 21.8347 71.0781 21.5413 71.5261 21.328C71.9848 21.1147 72.4861 21.008 73.0301 21.008C73.7235 21.008 74.3421 21.1573 74.8861 21.456C75.4301 21.744 75.8515 22.16 76.1501 22.704C76.4381 22.192 76.8541 21.7813 77.3981 21.472C77.9528 21.1627 78.5501 21.008 79.1901 21.008ZM87.1878 22.432C87.4758 22.0053 87.8704 21.6587 88.3718 21.392C88.8838 21.1253 89.4651 20.992 90.1158 20.992C90.8731 20.992 91.5558 21.1787 92.1638 21.552C92.7824 21.9253 93.2678 22.4587 93.6198 23.152C93.9824 23.8347 94.1638 24.6293 94.1638 25.536C94.1638 26.4427 93.9824 27.248 93.6198 27.952C93.2678 28.6453 92.7824 29.184 92.1638 29.568C91.5558 29.952 90.8731 30.144 90.1158 30.144C89.4544 30.144 88.8731 30.016 88.3718 29.76C87.8811 29.4933 87.4864 29.152 87.1878 28.736V30H84.9478V18.16H87.1878V22.432ZM91.8758 25.536C91.8758 25.0027 91.7638 24.544 91.5398 24.16C91.3264 23.7653 91.0384 23.4667 90.6758 23.264C90.3238 23.0613 89.9398 22.96 89.5238 22.96C89.1184 22.96 88.7344 23.0667 88.3718 23.28C88.0198 23.4827 87.7318 23.7813 87.5078 24.176C87.2944 24.5707 87.1878 25.0347 87.1878 25.568C87.1878 26.1013 87.2944 26.5653 87.5078 26.96C87.7318 27.3547 88.0198 27.6587 88.3718 27.872C88.7344 28.0747 89.1184 28.176 89.5238 28.176C89.9398 28.176 90.3238 28.0693 90.6758 27.856C91.0384 27.6427 91.3264 27.3387 91.5398 26.944C91.7638 26.5493 91.8758 26.08 91.8758 25.536ZM95.2155 25.536C95.2155 24.64 95.3915 23.8453 95.7435 23.152C96.1062 22.4587 96.5915 21.9253 97.1995 21.552C97.8182 21.1787 98.5062 20.992 99.2635 20.992C99.9248 20.992 100.501 21.1253 100.992 21.392C101.493 21.6587 101.893 21.9947 102.192 22.4V21.136H104.448V30H102.192V28.704C101.904 29.12 101.504 29.4667 100.992 29.744C100.49 30.0107 99.9088 30.144 99.2475 30.144C98.5008 30.144 97.8182 29.952 97.1995 29.568C96.5915 29.184 96.1062 28.6453 95.7435 27.952C95.3915 27.248 95.2155 26.4427 95.2155 25.536ZM102.192 25.568C102.192 25.024 102.085 24.56 101.872 24.176C101.658 23.7813 101.37 23.4827 101.008 23.28C100.645 23.0667 100.256 22.96 99.8395 22.96C99.4235 22.96 99.0395 23.0613 98.6875 23.264C98.3355 23.4667 98.0475 23.7653 97.8235 24.16C97.6102 24.544 97.5035 25.0027 97.5035 25.536C97.5035 26.0693 97.6102 26.5387 97.8235 26.944C98.0475 27.3387 98.3355 27.6427 98.6875 27.856C99.0502 28.0693 99.4342 28.176 99.8395 28.176C100.256 28.176 100.645 28.0747 101.008 27.872C101.37 27.6587 101.658 27.36 101.872 26.976C102.085 26.5813 102.192 26.112 102.192 25.568ZM111.627 21.008C112.299 21.008 112.897 21.1573 113.419 21.456C113.942 21.744 114.347 22.176 114.635 22.752C114.934 23.3173 115.083 24 115.083 24.8V30H112.843V25.104C112.843 24.4 112.667 23.8613 112.315 23.488C111.963 23.104 111.483 22.912 110.875 22.912C110.257 22.912 109.766 23.104 109.403 23.488C109.051 23.8613 108.875 24.4 108.875 25.104V30H106.635V18.16H108.875V22.24C109.163 21.856 109.547 21.5573 110.027 21.344C110.507 21.12 111.041 21.008 111.627 21.008ZM123.634 22.976V27.264C123.634 27.5627 123.703 27.7813 123.842 27.92C123.991 28.048 124.237 28.112 124.578 28.112H125.618V30H124.21C122.322 30 121.378 29.0827 121.378 27.248V22.976H120.322V21.136H121.378V18.944H123.634V21.136H125.618V22.976H123.634ZM135.597 21.136V30H133.341V28.88C133.053 29.264 132.674 29.568 132.205 29.792C131.746 30.0053 131.245 30.112 130.701 30.112C130.008 30.112 129.394 29.968 128.861 29.68C128.328 29.3813 127.906 28.9493 127.597 28.384C127.298 27.808 127.149 27.1253 127.149 26.336V21.136H129.389V26.016C129.389 26.72 129.565 27.264 129.917 27.648C130.269 28.0213 130.749 28.208 131.357 28.208C131.976 28.208 132.461 28.0213 132.813 27.648C133.165 27.264 133.341 26.72 133.341 26.016V21.136H135.597ZM141.279 20.992C141.94 20.992 142.522 21.1253 143.023 21.392C143.524 21.648 143.919 21.984 144.207 22.4V21.136H146.463V30.064C146.463 30.8853 146.298 31.616 145.967 32.256C145.636 32.9067 145.14 33.4187 144.479 33.792C143.818 34.176 143.018 34.368 142.079 34.368C140.82 34.368 139.786 34.0747 138.975 33.488C138.175 32.9013 137.722 32.1013 137.615 31.088H139.839C139.956 31.4933 140.207 31.8133 140.591 32.048C140.986 32.2933 141.46 32.416 142.015 32.416C142.666 32.416 143.194 32.2187 143.599 31.824C144.004 31.44 144.207 30.8533 144.207 30.064V28.688C143.919 29.104 143.519 29.4507 143.007 29.728C142.506 30.0053 141.93 30.144 141.279 30.144C140.532 30.144 139.85 29.952 139.231 29.568C138.612 29.184 138.122 28.6453 137.759 27.952C137.407 27.248 137.231 26.4427 137.231 25.536C137.231 24.64 137.407 23.8453 137.759 23.152C138.122 22.4587 138.607 21.9253 139.215 21.552C139.834 21.1787 140.522 20.992 141.279 20.992ZM144.207 25.568C144.207 25.024 144.1 24.56 143.887 24.176C143.674 23.7813 143.386 23.4827 143.023 23.28C142.66 23.0667 142.271 22.96 141.855 22.96C141.439 22.96 141.055 23.0613 140.703 23.264C140.351 23.4667 140.063 23.7653 139.839 24.16C139.626 24.544 139.519 25.0027 139.519 25.536C139.519 26.0693 139.626 26.5387 139.839 26.944C140.063 27.3387 140.351 27.6427 140.703 27.856C141.066 28.0693 141.45 28.176 141.855 28.176C142.271 28.176 142.66 28.0747 143.023 27.872C143.386 27.6587 143.674 27.36 143.887 26.976C144.1 26.5813 144.207 26.112 144.207 25.568ZM148.075 25.536C148.075 24.64 148.251 23.8453 148.603 23.152C148.966 22.4587 149.451 21.9253 150.059 21.552C150.678 21.1787 151.366 20.992 152.123 20.992C152.784 20.992 153.36 21.1253 153.851 21.392C154.352 21.6587 154.752 21.9947 155.051 22.4V21.136H157.307V30H155.051V28.704C154.763 29.12 154.363 29.4667 153.851 29.744C153.35 30.0107 152.768 30.144 152.107 30.144C151.36 30.144 150.678 29.952 150.059 29.568C149.451 29.184 148.966 28.6453 148.603 27.952C148.251 27.248 148.075 26.4427 148.075 25.536ZM155.051 25.568C155.051 25.024 154.944 24.56 154.731 24.176C154.518 23.7813 154.23 23.4827 153.867 23.28C153.504 23.0667 153.115 22.96 152.699 22.96C152.283 22.96 151.899 23.0613 151.547 23.264C151.195 23.4667 150.907 23.7653 150.683 24.16C150.47 24.544 150.363 25.0027 150.363 25.536C150.363 26.0693 150.47 26.5387 150.683 26.944C150.907 27.3387 151.195 27.6427 151.547 27.856C151.91 28.0693 152.294 28.176 152.699 28.176C153.115 28.176 153.504 28.0747 153.867 27.872C154.23 27.6587 154.518 27.36 154.731 26.976C154.944 26.5813 155.051 26.112 155.051 25.568ZM162.887 30.144C162.161 30.144 161.511 30.016 160.935 29.76C160.359 29.4933 159.9 29.136 159.559 28.688C159.228 28.24 159.047 27.744 159.015 27.2H161.271C161.313 27.5413 161.479 27.824 161.767 28.048C162.065 28.272 162.433 28.384 162.871 28.384C163.297 28.384 163.628 28.2987 163.863 28.128C164.108 27.9573 164.231 27.7387 164.231 27.472C164.231 27.184 164.081 26.9707 163.783 26.832C163.495 26.6827 163.031 26.5227 162.391 26.352C161.729 26.192 161.185 26.0267 160.759 25.856C160.343 25.6853 159.98 25.424 159.671 25.072C159.372 24.72 159.223 24.2453 159.223 23.648C159.223 23.1573 159.361 22.7093 159.639 22.304C159.927 21.8987 160.332 21.5787 160.855 21.344C161.388 21.1093 162.012 20.992 162.727 20.992C163.783 20.992 164.625 21.2587 165.255 21.792C165.884 22.3147 166.231 23.024 166.295 23.92H164.151C164.119 23.568 163.969 23.2907 163.703 23.088C163.447 22.8747 163.1 22.768 162.663 22.768C162.257 22.768 161.943 22.8427 161.719 22.992C161.505 23.1413 161.399 23.3493 161.399 23.616C161.399 23.9147 161.548 24.144 161.847 24.304C162.145 24.4533 162.609 24.608 163.239 24.768C163.879 24.928 164.407 25.0933 164.823 25.264C165.239 25.4347 165.596 25.7013 165.895 26.064C166.204 26.416 166.364 26.8853 166.375 27.472C166.375 27.984 166.231 28.4427 165.943 28.848C165.665 29.2533 165.26 29.5733 164.727 29.808C164.204 30.032 163.591 30.144 162.887 30.144Z" fill="white"/>
</svg>
