<svg width="113" height="24" viewBox="0 0 113 24" fill="none" xmlns="http://www.w3.org/2000/svg">
<path d="M12.576 3.32V5.552H8.136V20H5.4V5.552H0.936V3.32H12.576ZM21.0829 20.216C19.8349 20.216 18.7069 19.936 17.6989 19.376C16.6909 18.8 15.8989 18 15.3229 16.976C14.7469 15.936 14.4589 14.736 14.4589 13.376C14.4589 12.032 14.7549 10.84 15.3469 9.8C15.9389 8.76 16.7469 7.96 17.7709 7.4C18.7949 6.84 19.9389 6.56 21.2029 6.56C22.4669 6.56 23.6109 6.84 24.6349 7.4C25.6589 7.96 26.4669 8.76 27.0589 9.8C27.6509 10.84 27.9469 12.032 27.9469 13.376C27.9469 14.72 27.6429 15.912 27.0349 16.952C26.4269 17.992 25.5949 18.8 24.5389 19.376C23.4989 19.936 22.3469 20.216 21.0829 20.216ZM21.0829 17.84C21.7869 17.84 22.4429 17.672 23.0509 17.336C23.6749 17 24.1789 16.496 24.5629 15.824C24.9469 15.152 25.1389 14.336 25.1389 13.376C25.1389 12.416 24.9549 11.608 24.5869 10.952C24.2189 10.28 23.7309 9.776 23.1229 9.44C22.5149 9.104 21.8589 8.936 21.1549 8.936C20.4509 8.936 19.7949 9.104 19.1869 9.44C18.5949 9.776 18.1229 10.28 17.7709 10.952C17.4189 11.608 17.2429 12.416 17.2429 13.376C17.2429 14.8 17.6029 15.904 18.3229 16.688C19.0589 17.456 19.9789 17.84 21.0829 17.84ZM42.3339 3.32C44.1099 3.32 45.6619 3.664 46.9899 4.352C48.3339 5.024 49.3659 6 50.0859 7.28C50.8219 8.544 51.1899 10.024 51.1899 11.72C51.1899 13.416 50.8219 14.888 50.0859 16.136C49.3659 17.384 48.3339 18.344 46.9899 19.016C45.6619 19.672 44.1099 20 42.3339 20H36.8859V3.32H42.3339ZM42.3339 17.768C44.2859 17.768 45.7819 17.24 46.8219 16.184C47.8619 15.128 48.3819 13.64 48.3819 11.72C48.3819 9.784 47.8619 8.272 46.8219 7.184C45.7819 6.096 44.2859 5.552 42.3339 5.552H39.6219V17.768H42.3339ZM59.6376 20.216C58.3896 20.216 57.2616 19.936 56.2536 19.376C55.2456 18.8 54.4536 18 53.8776 16.976C53.3016 15.936 53.0136 14.736 53.0136 13.376C53.0136 12.032 53.3096 10.84 53.9016 9.8C54.4936 8.76 55.3016 7.96 56.3256 7.4C57.3496 6.84 58.4936 6.56 59.7576 6.56C61.0216 6.56 62.1656 6.84 63.1896 7.4C64.2136 7.96 65.0216 8.76 65.6136 9.8C66.2056 10.84 66.5016 12.032 66.5016 13.376C66.5016 14.72 66.1976 15.912 65.5896 16.952C64.9816 17.992 64.1496 18.8 63.0936 19.376C62.0536 19.936 60.9016 20.216 59.6376 20.216ZM59.6376 17.84C60.3416 17.84 60.9976 17.672 61.6056 17.336C62.2296 17 62.7336 16.496 63.1176 15.824C63.5016 15.152 63.6936 14.336 63.6936 13.376C63.6936 12.416 63.5096 11.608 63.1416 10.952C62.7736 10.28 62.2856 9.776 61.6776 9.44C61.0696 9.104 60.4136 8.936 59.7096 8.936C59.0056 8.936 58.3496 9.104 57.7416 9.44C57.1496 9.776 56.6776 10.28 56.3256 10.952C55.9736 11.608 55.7976 12.416 55.7976 13.376C55.7976 14.8 56.1576 15.904 56.8776 16.688C57.6136 17.456 58.5336 17.84 59.6376 17.84ZM78.1766 17.792H83.8166V20H75.4406V3.32H78.1766V17.792ZM87.4967 5.024C87.0007 5.024 86.5847 4.856 86.2487 4.52C85.9127 4.184 85.7447 3.768 85.7447 3.272C85.7447 2.776 85.9127 2.36 86.2487 2.024C86.5847 1.688 87.0007 1.52 87.4967 1.52C87.9767 1.52 88.3847 1.688 88.7207 2.024C89.0567 2.36 89.2247 2.776 89.2247 3.272C89.2247 3.768 89.0567 4.184 88.7207 4.52C88.3847 4.856 87.9767 5.024 87.4967 5.024ZM88.8407 6.776V20H86.1047V6.776H88.8407ZM97.2328 20.216C96.1928 20.216 95.2568 20.032 94.4248 19.664C93.6088 19.28 92.9608 18.768 92.4808 18.128C92.0008 17.472 91.7448 16.744 91.7128 15.944H94.5448C94.5928 16.504 94.8568 16.976 95.3368 17.36C95.8328 17.728 96.4488 17.912 97.1848 17.912C97.9528 17.912 98.5448 17.768 98.9608 17.48C99.3928 17.176 99.6088 16.792 99.6088 16.328C99.6088 15.832 99.3688 15.464 98.8888 15.224C98.4248 14.984 97.6808 14.72 96.6568 14.432C95.6648 14.16 94.8568 13.896 94.2328 13.64C93.6088 13.384 93.0648 12.992 92.6008 12.464C92.1528 11.936 91.9288 11.24 91.9288 10.376C91.9288 9.672 92.1368 9.032 92.5528 8.456C92.9688 7.864 93.5608 7.4 94.3288 7.064C95.1128 6.728 96.0088 6.56 97.0168 6.56C98.5208 6.56 99.7288 6.944 100.641 7.712C101.569 8.464 102.065 9.496 102.129 10.808H99.3928C99.3448 10.216 99.1048 9.744 98.6728 9.392C98.2408 9.04 97.6568 8.864 96.9208 8.864C96.2008 8.864 95.6488 9 95.2648 9.272C94.8808 9.544 94.6888 9.904 94.6888 10.352C94.6888 10.704 94.8168 11 95.0728 11.24C95.3288 11.48 95.6408 11.672 96.0088 11.816C96.3768 11.944 96.9208 12.112 97.6408 12.32C98.6008 12.576 99.3848 12.84 99.9928 13.112C100.617 13.368 101.153 13.752 101.601 14.264C102.049 14.776 102.281 15.456 102.297 16.304C102.297 17.056 102.089 17.728 101.673 18.32C101.257 18.912 100.665 19.376 99.8968 19.712C99.1448 20.048 98.2568 20.216 97.2328 20.216ZM108.445 9.008V16.328C108.445 16.824 108.557 17.184 108.781 17.408C109.021 17.616 109.421 17.72 109.981 17.72H111.661V20H109.501C108.269 20 107.325 19.712 106.669 19.136C106.013 18.56 105.685 17.624 105.685 16.328V9.008H104.125V6.776H105.685V3.488H108.445V6.776H111.661V9.008H108.445Z" fill="#293038"/>
</svg>
