<svg width="83" height="13" viewBox="0 0 83 13" fill="none" xmlns="http://www.w3.org/2000/svg">
<path d="M11.912 0.879999V12H10.088V4.384L6.696 12H5.432L2.024 4.384V12H0.2V0.879999H2.168L6.072 9.6L9.96 0.879999H11.912ZM23.5494 0.879999L19.8694 7.968V12H18.0454V7.968L14.3494 0.879999H16.3814L18.9574 6.336L21.5334 0.879999H23.5494ZM38.3371 0.879999V2.368H35.3771V12H33.5531V2.368H30.5771V0.879999H38.3371ZM47.8884 9.728H43.2324L42.4324 12H40.5284L44.5124 0.863999H46.6244L50.6084 12H48.6884L47.8884 9.728ZM47.3764 8.24L45.5684 3.072L43.7444 8.24H47.3764ZM57.0046 12.112C56.258 12.112 55.586 11.984 54.9886 11.728C54.3913 11.4613 53.922 11.088 53.5806 10.608C53.2393 10.128 53.0686 9.568 53.0686 8.928H55.0206C55.0633 9.408 55.25 9.80267 55.5806 10.112C55.922 10.4213 56.3966 10.576 57.0046 10.576C57.634 10.576 58.1246 10.4267 58.4766 10.128C58.8286 9.81867 59.0046 9.424 59.0046 8.944C59.0046 8.57067 58.8926 8.26667 58.6686 8.032C58.4553 7.79733 58.1833 7.616 57.8526 7.488C57.5326 7.36 57.0846 7.22133 56.5086 7.072C55.7833 6.88 55.1913 6.688 54.7326 6.496C54.2846 6.29333 53.9006 5.984 53.5806 5.568C53.2606 5.152 53.1006 4.59733 53.1006 3.904C53.1006 3.264 53.2606 2.704 53.5806 2.224C53.9006 1.744 54.3486 1.376 54.9246 1.12C55.5006 0.863999 56.1673 0.735999 56.9246 0.735999C58.002 0.735999 58.882 1.008 59.5646 1.552C60.258 2.08533 60.642 2.82133 60.7166 3.76H58.7006C58.6686 3.35467 58.4766 3.008 58.1246 2.72C57.7726 2.432 57.3086 2.288 56.7326 2.288C56.21 2.288 55.7833 2.42133 55.4526 2.688C55.122 2.95467 54.9566 3.33867 54.9566 3.84C54.9566 4.18133 55.058 4.464 55.2606 4.688C55.474 4.90133 55.7406 5.072 56.0606 5.2C56.3806 5.328 56.818 5.46667 57.3726 5.616C58.1086 5.81867 58.706 6.02133 59.1646 6.224C59.634 6.42667 60.0286 6.74133 60.3486 7.168C60.6793 7.584 60.8446 8.144 60.8446 8.848C60.8446 9.41333 60.69 9.94667 60.3806 10.448C60.082 10.9493 59.6393 11.3547 59.0526 11.664C58.4766 11.9627 57.794 12.112 57.0046 12.112ZM70.1249 12L65.8209 7.024V12H63.9969V0.879999H65.8209V5.952L70.1409 0.879999H72.4289L67.5969 6.448L72.5089 12H70.1249ZM78.7859 12.112C78.0392 12.112 77.3672 11.984 76.7699 11.728C76.1725 11.4613 75.7032 11.088 75.3619 10.608C75.0205 10.128 74.8499 9.568 74.8499 8.928H76.8019C76.8445 9.408 77.0312 9.80267 77.3619 10.112C77.7032 10.4213 78.1779 10.576 78.7859 10.576C79.4152 10.576 79.9059 10.4267 80.2579 10.128C80.6099 9.81867 80.7859 9.424 80.7859 8.944C80.7859 8.57067 80.6739 8.26667 80.4499 8.032C80.2365 7.79733 79.9645 7.616 79.6339 7.488C79.3139 7.36 78.8659 7.22133 78.2899 7.072C77.5645 6.88 76.9725 6.688 76.5139 6.496C76.0659 6.29333 75.6819 5.984 75.3619 5.568C75.0419 5.152 74.8819 4.59733 74.8819 3.904C74.8819 3.264 75.0419 2.704 75.3619 2.224C75.6819 1.744 76.1299 1.376 76.7059 1.12C77.2819 0.863999 77.9485 0.735999 78.7059 0.735999C79.7832 0.735999 80.6632 1.008 81.3459 1.552C82.0392 2.08533 82.4232 2.82133 82.4979 3.76H80.4819C80.4499 3.35467 80.2579 3.008 79.9059 2.72C79.5539 2.432 79.0899 2.288 78.5139 2.288C77.9912 2.288 77.5645 2.42133 77.2339 2.688C76.9032 2.95467 76.7379 3.33867 76.7379 3.84C76.7379 4.18133 76.8392 4.464 77.0419 4.688C77.2552 4.90133 77.5219 5.072 77.8419 5.2C78.1619 5.328 78.5992 5.46667 79.1539 5.616C79.8899 5.81867 80.4872 6.02133 80.9459 6.224C81.4152 6.42667 81.8099 6.74133 82.1299 7.168C82.4605 7.584 82.6259 8.144 82.6259 8.848C82.6259 9.41333 82.4712 9.94667 82.1619 10.448C81.8632 10.9493 81.4205 11.3547 80.8339 11.664C80.2579 11.9627 79.5752 12.112 78.7859 12.112Z" fill="#FF5F26"/>
</svg>
